<svg width="160" height="160" viewBox="0 0 160 160" fill="none" xmlns="http://www.w3.org/2000/svg">
  <circle cx="80" cy="80" r="74" fill="#F6F7F8" stroke="#D7DCE3" stroke-width="1.5"/>
  <path d="M41.5 133.5C46.8 111.4 60.4 99.8 80 99.8C99.6 99.8 113.2 111.4 118.5 133.5" fill="#CCD2DA"/>
  <path d="M48 53.6C48 35.7 61.6 24 80 24C98.4 24 112 35.7 112 53.6C112 69.9 103.3 85.1 89.8 93.1C86.8 94.9 83.5 95.8 80 95.8C76.5 95.8 73.2 94.9 70.2 93.1C56.7 85.1 48 69.9 48 53.6Z" fill="#8E96A1"/>
  <path d="M60.2 58.8C60.2 46.5 69.1 36.5 80 36.5C90.9 36.5 99.8 46.5 99.8 58.8C99.8 71.1 90.9 81.1 80 81.1C69.1 81.1 60.2 71.1 60.2 58.8Z" fill="#F1F2F4"/>
  <path d="M52.4 49.4C53.2 37.6 63.2 29.3 76.8 29.3C86.5 29.3 94.8 33.4 99.3 40L104.9 46.9L104.4 55.2C99.3 54.4 94.1 52.2 88.9 48.6C84.2 45.3 80.8 41.6 78.8 37.5C76.9 41.1 73.7 44.4 69.2 47.4C64.4 50.6 58.8 52.8 52.4 53.9V49.4Z" fill="#59606C"/>
  <path d="M60 92.1L68.8 99.5L80 112L91.2 99.5L100 92.1C108.8 96.4 115.5 104.7 120 117.1L111.7 123.4C107 111.8 99.3 104 88.4 100L80 112L71.6 100C60.7 104 53 111.8 48.3 123.4L40 117.1C44.5 104.7 51.2 96.4 60 92.1Z" fill="#B8C0CB"/>
  <path d="M54.9 54C61.8 53.2 67.6 51.2 72.3 48C75.7 45.7 78.5 43.2 80.8 40.4C83.3 44.1 86.9 47.3 91.6 50C95.4 52.1 99.2 53.5 103.2 54.3" stroke="#59606C" stroke-width="2" stroke-linecap="round"/>
</svg>
