<svg width="160" height="160" viewBox="0 0 160 160" fill="none" xmlns="http://www.w3.org/2000/svg">
  <circle cx="80" cy="80" r="74" fill="#F6F7F8" stroke="#D7DCE3" stroke-width="1.5"/>
  <path d="M47 134C50.6 111.5 62.1 100 79.9 100C97.7 100 109.2 111.5 112.8 134" fill="#D4D8DE"/>
  <path d="M46 63.2C46 40.8 61.4 24 80.7 24C100.2 24 115.5 40.7 115.5 63.2C115.5 78.9 108 91.2 96.8 97.4C92.1 100 86.5 101.4 80.4 101.4C74.4 101.4 68.8 100 64.1 97.4C53.4 91.5 46 79.5 46 63.2Z" fill="#A7AEB8"/>
  <path d="M58 63.4C58 49.5 68.1 38.2 80.5 38.2C92.9 38.2 103 49.5 103 63.4C103 77.3 92.9 88.6 80.5 88.6C68.1 88.6 58 77.3 58 63.4Z" fill="#F2F3F5"/>
  <path d="M52.8 55.1C53.9 40.8 64.8 29.8 79.9 29.8C95 29.8 105.7 39.9 107.5 53.8C102.7 52.7 98.1 50.2 93.7 46.4C90.4 43.6 88.1 40.3 86.8 36.6C82 44.6 74.2 50.2 63.5 53.4L52.8 55.1Z" fill="#6D7481"/>
  <path d="M50.5 58.8C54.2 58.3 58 57.5 61.7 56.2C70.5 53.2 77.2 47.9 82 40.3C84 46 87.8 50.7 93.5 54.1C97.6 56.5 101.5 57.7 105.1 58" stroke="#6D7481" stroke-width="2" stroke-linecap="round"/>
  <path d="M64.9 97.6C69.2 100.1 74.4 101.5 80.4 101.5C86.3 101.5 91.5 100.1 95.8 97.6L96.1 104.9C91.7 110.4 86.4 113.1 80.4 113.1C74.3 113.1 69 110.4 64.6 104.9L64.9 97.6Z" fill="#E8EBEE"/>
</svg>
