<svg width="48" height="32" viewBox="0 0 48 32" fill="none" xmlns="http://www.w3.org/2000/svg">
  <rect x="0.5" y="0.5" width="47" height="31" rx="8" fill="#CE1126"/>
  <path d="M16 16L47.5 16V8.5C47.5 4.08172 43.9183 0.5 39.5 0.5H16V16Z" fill="#0038A8"/>
  <path d="M0.5 8.5V23.5C0.5 27.9183 4.08172 31.5 8.5 31.5H16L28 16L16 0.5H8.5C4.08172 0.5 0.5 4.08172 0.5 8.5Z" fill="white"/>
  <circle cx="9.5" cy="16" r="3.2" fill="#F6C542"/>
  <path d="M9.5 7.2L10.5 10L13.4 10.2L11.1 12.1L11.8 15L9.5 13.3L7.2 15L7.9 12.1L5.6 10.2L8.5 10L9.5 7.2Z" fill="#F6C542"/>
  <path d="M9.5 17L10.3 19.1L12.5 19.2L10.8 20.7L11.3 22.8L9.5 21.5L7.7 22.8L8.2 20.7L6.5 19.2L8.7 19.1L9.5 17Z" fill="#F6C542"/>
  <path d="M5.1 14.6L5.8 16.4L7.7 16.5L6.2 17.7L6.7 19.6L5.1 18.5L3.5 19.6L4 17.7L2.5 16.5L4.4 16.4L5.1 14.6Z" fill="#F6C542"/>
  <rect x="0.5" y="0.5" width="47" height="31" rx="8" stroke="#D9DEE5"/>
</svg>
