<svg width="160" height="160" viewBox="0 0 160 160" fill="none" xmlns="http://www.w3.org/2000/svg">
  <circle cx="80" cy="80" r="74" fill="#F6F7F8" stroke="#D7DCE3" stroke-width="1.5"/>
  <path d="M45.2 134C48.9 111 60.8 99.5 79.8 99.5C98.8 99.5 110.7 111 114.4 134" fill="#D2D7DE"/>
  <path d="M44 61.4C44 39.7 59.9 24 80.1 24C100.6 24 116 39.8 116 61.4C116 77.4 108.3 89.7 96.4 96.6C91.7 99.3 86.2 100.7 80.3 100.7C74.5 100.7 69 99.3 64.3 96.6C52 89.5 44 77 44 61.4Z" fill="#A1A9B3"/>
  <path d="M57.8 63.5C57.8 49.9 68 38.9 80.5 38.9C93 38.9 103.2 49.9 103.2 63.5C103.2 77.1 93 88.1 80.5 88.1C68 88.1 57.8 77.1 57.8 63.5Z" fill="#F2F3F5"/>
  <path d="M52.6 52.8C53.1 40.3 61 30.7 72.5 27.3L84.8 24L88.9 30.5C91.1 34 94.4 37 99 39.6C103.3 42 106.6 45 108.9 48.6L104.8 57.5C100.9 53.5 96.2 50.8 90.7 49.6C84.8 48.3 78.2 48.9 70.8 51.6L61.4 59.2L52.6 52.8Z" fill="#636B78"/>
  <path d="M54.6 58.1C59.4 57.8 64.6 56 70 52.8C77 48.7 83.7 47.5 90.2 49.1C95.4 50.4 99.8 53.3 103.3 57.8" stroke="#636B78" stroke-width="2" stroke-linecap="round"/>
  <path d="M64.8 97.1C69.3 99.7 74.5 101.1 80.3 101.1C86.1 101.1 91.3 99.7 95.7 97.1L96 104.6C91.5 110.4 86.3 113.3 80.3 113.3C74.3 113.3 69.1 110.4 64.6 104.6L64.8 97.1Z" fill="#E9EBEF"/>
</svg>
